<svg width="72" height="21" viewBox="0 0 72 21" fill="none" xmlns="http://www.w3.org/2000/svg">
<path d="M15.49 19.0273C14.9481 19.0273 14.4732 18.9241 14.0654 18.7177C13.6576 18.5112 13.3402 18.2221 13.1131 17.8505C12.886 17.4789 12.7724 17.0504 12.7724 16.5653V16.5498C12.7724 16.0749 12.8911 15.6671 13.1286 15.3265C13.366 14.9806 13.7093 14.7071 14.1583 14.5058C14.6125 14.3045 15.1597 14.1857 15.7997 14.1496L18.8812 13.9638V15.1406L16.0242 15.3187C15.5236 15.3497 15.1364 15.471 14.8629 15.6826C14.5945 15.8891 14.4603 16.1652 14.4603 16.5111V16.5265C14.4603 16.8827 14.5945 17.164 14.8629 17.3705C15.1364 17.5769 15.4978 17.6802 15.9468 17.6802C16.3391 17.6802 16.6901 17.6002 16.9998 17.4401C17.3147 17.2801 17.5624 17.0608 17.7431 16.782C17.9237 16.4982 18.0141 16.1807 18.0141 15.8297V13.4063C18.0141 12.9573 17.8747 12.6063 17.596 12.3534C17.3172 12.0953 16.9172 11.9663 16.3959 11.9663C15.9159 11.9663 15.5287 12.0695 15.2345 12.2759C14.9455 12.4824 14.7648 12.7482 14.6926 13.0734L14.6771 13.1431H13.0976L13.1054 13.0579C13.1466 12.5882 13.3041 12.1676 13.5776 11.7959C13.8512 11.4191 14.2306 11.1223 14.7158 10.9055C15.201 10.6887 15.7765 10.5804 16.4423 10.5804C17.1082 10.5804 17.6837 10.6913 18.1689 10.9133C18.6541 11.1352 19.0309 11.4475 19.2993 11.8501C19.5677 12.2527 19.7019 12.725 19.7019 13.267V18.8802H18.0141V17.595H17.9831C17.8231 17.8892 17.6166 18.1447 17.3637 18.3615C17.1108 18.5731 16.8243 18.7383 16.5043 18.857C16.1894 18.9706 15.8513 19.0273 15.49 19.0273Z" fill="white"/>
<path d="M22.3885 18.8802V17.4634H25.6558C26.4301 17.4634 27.0211 17.3085 27.4288 16.9988C27.8366 16.6891 28.0405 16.2375 28.0405 15.6439V15.6284C28.0405 15.2258 27.945 14.8903 27.754 14.6219C27.5682 14.3535 27.2895 14.1522 26.9178 14.018C26.5462 13.8786 26.0842 13.8089 25.532 13.8089H22.3885V12.4695H25.1835C25.9475 12.4695 26.5307 12.3198 26.9333 12.0204C27.3359 11.7211 27.5372 11.2927 27.5372 10.7352V10.7197C27.5372 10.2036 27.3643 9.80869 27.0185 9.53513C26.6778 9.26156 26.1926 9.12478 25.5629 9.12478H22.3885V7.70791H25.981C26.6469 7.70791 27.225 7.82405 27.7153 8.05632C28.2108 8.28343 28.5928 8.60862 28.8612 9.03187C29.1348 9.44996 29.2715 9.94031 29.2715 10.5029V10.5184C29.2715 10.9107 29.1812 11.2823 29.0006 11.6333C28.8199 11.9843 28.5721 12.2785 28.2573 12.516C27.9476 12.7534 27.594 12.9005 27.1966 12.9573V12.9883C27.7282 13.0399 28.1902 13.1896 28.5825 13.4373C28.9799 13.6799 29.2845 13.9973 29.4961 14.3896C29.7129 14.7768 29.8213 15.2181 29.8213 15.7136V15.7291C29.8213 16.3846 29.6664 16.9472 29.3567 17.4169C29.0522 17.8866 28.616 18.2479 28.0482 18.5009C27.4805 18.7538 26.7991 18.8802 26.0042 18.8802H22.3885ZM21.5214 18.8802V7.70791H23.2557V18.8802H21.5214Z" fill="white"/>
<path d="M34.5829 19.0428C33.788 19.0428 33.1015 18.8725 32.5234 18.5318C31.9504 18.186 31.5091 17.6982 31.1994 17.0685C30.8949 16.4336 30.7426 15.6878 30.7426 14.831V14.8232C30.7426 13.9767 30.8975 13.236 31.2072 12.6011C31.5168 11.9611 31.953 11.4656 32.5156 11.1146C33.0782 10.7584 33.7389 10.5804 34.4977 10.5804C35.2616 10.5804 35.9171 10.7507 36.4643 11.0914C37.0166 11.4269 37.4424 11.9043 37.7418 12.5237C38.0411 13.1379 38.1908 13.8528 38.1908 14.6684V15.2336H31.571V14.049H37.3779L36.5494 15.1561V14.5058C36.5494 13.9328 36.4617 13.458 36.2862 13.0812C36.1159 12.6992 35.8758 12.4153 35.5661 12.2295C35.2616 12.0437 34.908 11.9508 34.5054 11.9508C34.108 11.9508 33.7518 12.0488 33.437 12.245C33.1221 12.4411 32.8744 12.7302 32.6937 13.1121C32.513 13.4889 32.4227 13.9535 32.4227 14.5058V15.1561C32.4227 15.6826 32.5105 16.1343 32.686 16.5111C32.8666 16.8827 33.1221 17.1692 33.4525 17.3705C33.7828 17.5666 34.1725 17.6647 34.6216 17.6647C34.9519 17.6647 35.2435 17.6156 35.4965 17.5176C35.7494 17.4143 35.9584 17.2801 36.1236 17.115C36.2939 16.9446 36.4126 16.7562 36.4797 16.5498L36.503 16.4878H38.0979L38.0824 16.573C38.0153 16.893 37.8889 17.2001 37.7031 17.4943C37.5172 17.7886 37.2746 18.0544 36.9753 18.2918C36.681 18.5241 36.3326 18.7073 35.93 18.8415C35.5274 18.9757 35.0784 19.0428 34.5829 19.0428Z" fill="white"/>
<path d="M41.8762 19.0273C41.3343 19.0273 40.8594 18.9241 40.4516 18.7177C40.0438 18.5112 39.7264 18.2221 39.4993 17.8505C39.2722 17.4789 39.1586 17.0504 39.1586 16.5653V16.5498C39.1586 16.0749 39.2773 15.6671 39.5148 15.3265C39.7522 14.9806 40.0955 14.7071 40.5445 14.5058C40.9987 14.3045 41.5459 14.1857 42.1859 14.1496L45.2674 13.9638V15.1406L42.4104 15.3187C41.9098 15.3497 41.5227 15.471 41.2491 15.6826C40.9807 15.8891 40.8465 16.1652 40.8465 16.5111V16.5265C40.8465 16.8827 40.9807 17.164 41.2491 17.3705C41.5227 17.5769 41.884 17.6802 42.333 17.6802C42.7253 17.6802 43.0763 17.6002 43.386 17.4401C43.7009 17.2801 43.9486 17.0608 44.1293 16.782C44.3099 16.4982 44.4003 16.1807 44.4003 15.8297V13.4063C44.4003 12.9573 44.2609 12.6063 43.9822 12.3534C43.7034 12.0953 43.3034 11.9663 42.7821 11.9663C42.3021 11.9663 41.9149 12.0695 41.6207 12.2759C41.3317 12.4824 41.151 12.7482 41.0788 13.0734L41.0633 13.1431H39.4838L39.4916 13.0579C39.5328 12.5882 39.6903 12.1676 39.9638 11.7959C40.2374 11.4191 40.6168 11.1223 41.102 10.9055C41.5872 10.6887 42.1627 10.5804 42.8285 10.5804C43.4944 10.5804 44.0699 10.6913 44.5551 10.9133C45.0403 11.1352 45.4171 11.4475 45.6855 11.8501C45.9539 12.2527 46.0881 12.725 46.0881 13.267V18.8802H44.4003V17.595H44.3693C44.2093 17.8892 44.0028 18.1447 43.7499 18.3615C43.497 18.5731 43.2105 18.7383 42.8905 18.857C42.5756 18.9706 42.2375 19.0273 41.8762 19.0273Z" fill="white"/>
<path d="M50.571 19.0428C49.7658 19.0428 49.1644 18.8622 48.767 18.5009C48.3747 18.1344 48.1786 17.5434 48.1786 16.7278V12.0669H47.0095V10.7352H48.1786V8.61378H49.8974V10.7352H51.4226V12.0669H49.8974V16.6349C49.8974 17.0479 49.9877 17.3318 50.1684 17.4866C50.349 17.6363 50.6174 17.7111 50.9736 17.7111C51.0613 17.7111 51.1413 17.7086 51.2136 17.7034C51.291 17.6931 51.3607 17.6853 51.4226 17.6802V18.9732C51.3246 18.9886 51.2007 19.0041 51.051 19.0196C50.9013 19.0351 50.7413 19.0428 50.571 19.0428Z" fill="white"/>
<path d="M52.8627 18.8802V7.70791H54.5428V18.8802H52.8627Z" fill="white"/>
<path d="M59.7458 19.0428C58.9509 19.0428 58.2644 18.8725 57.6863 18.5318C57.1133 18.186 56.672 17.6982 56.3623 17.0685C56.0578 16.4336 55.9055 15.6878 55.9055 14.831V14.8232C55.9055 13.9767 56.0604 13.236 56.37 12.6011C56.6797 11.9611 57.1159 11.4656 57.6785 11.1146C58.2411 10.7584 58.9018 10.5804 59.6606 10.5804C60.4245 10.5804 61.08 10.7507 61.6272 11.0914C62.1795 11.4269 62.6053 11.9043 62.9047 12.5237C63.204 13.1379 63.3537 13.8528 63.3537 14.6684V15.2336H56.7339V14.049H62.5408L61.7123 15.1561V14.5058C61.7123 13.9328 61.6246 13.458 61.4491 13.0812C61.2788 12.6992 61.0387 12.4153 60.729 12.2295C60.4245 12.0437 60.0709 11.9508 59.6683 11.9508C59.2709 11.9508 58.9147 12.0488 58.5999 12.245C58.285 12.4411 58.0373 12.7302 57.8566 13.1121C57.6759 13.4889 57.5856 13.9535 57.5856 14.5058V15.1561C57.5856 15.6826 57.6734 16.1343 57.8489 16.5111C58.0295 16.8827 58.285 17.1692 58.6154 17.3705C58.9457 17.5666 59.3354 17.6647 59.7845 17.6647C60.1148 17.6647 60.4064 17.6156 60.6594 17.5176C60.9123 17.4143 61.1213 17.2801 61.2865 17.115C61.4568 16.9446 61.5755 16.7562 61.6426 16.5498L61.6659 16.4878H63.2608L63.2453 16.573C63.1782 16.893 63.0518 17.2001 62.8659 17.4943C62.6801 17.7886 62.4375 18.0544 62.1382 18.2918C61.8439 18.5241 61.4955 18.7073 61.0929 18.8415C60.6903 18.9757 60.2413 19.0428 59.7458 19.0428Z" fill="white"/>
<path d="M67.705 19.0428C67.0236 19.0428 66.4378 18.9396 65.9474 18.7331C65.4622 18.5215 65.0803 18.2299 64.8016 17.8582C64.5228 17.4814 64.3551 17.0453 64.2983 16.5498L64.2906 16.4801H65.9474L65.9629 16.5575C66.0455 16.9291 66.2287 17.2208 66.5126 17.4324C66.7965 17.6389 67.194 17.7421 67.705 17.7421C68.0456 17.7421 68.3347 17.7008 68.5721 17.6182C68.8096 17.5305 68.9928 17.4066 69.1218 17.2466C69.2509 17.0866 69.3154 16.8956 69.3154 16.6736V16.6659C69.3154 16.4027 69.2302 16.191 69.0599 16.031C68.8896 15.871 68.585 15.7368 68.1463 15.6284L66.8146 15.3265C66.2984 15.2077 65.8674 15.0452 65.5216 14.8387C65.1809 14.6322 64.9254 14.3793 64.7551 14.0799C64.5848 13.7806 64.4996 13.4347 64.4996 13.0424V13.0347C64.4996 12.5444 64.6312 12.1159 64.8945 11.7495C65.1577 11.3778 65.5268 11.0914 66.0016 10.8901C66.4765 10.6836 67.0262 10.5804 67.6508 10.5804C68.2908 10.5804 68.8431 10.6887 69.3076 10.9055C69.7722 11.1223 70.1335 11.4191 70.3916 11.7959C70.6548 12.1676 70.7994 12.5831 70.8252 13.0424V13.1354H69.2534L69.2457 13.0812C69.1993 12.725 69.0392 12.436 68.7657 12.214C68.4921 11.9869 68.1205 11.8733 67.6508 11.8733C67.3514 11.8733 67.0907 11.9172 66.8688 12.005C66.6468 12.0927 66.4765 12.2192 66.3578 12.3843C66.2391 12.5444 66.1797 12.7328 66.1797 12.9495V12.9573C66.1797 13.1225 66.2184 13.2721 66.2958 13.4063C66.3784 13.5405 66.51 13.6567 66.6907 13.7548C66.8714 13.8528 67.1036 13.9354 67.3875 14.0025L68.7192 14.3122C69.5502 14.5032 70.1387 14.7742 70.4845 15.1252C70.8355 15.471 71.011 15.9381 71.011 16.5265V16.5343C71.011 17.0298 70.869 17.466 70.5852 17.8428C70.3013 18.2196 69.909 18.5138 69.4083 18.7254C68.9128 18.937 68.345 19.0428 67.705 19.0428Z" fill="white"/>
<path d="M11.2066 0.00449946C11.689 -0.0016873 12.1726 0.00112486 12.655 0C12.6595 2.98708 12.6967 5.97247 12.6927 8.9601C12.6432 10.923 12.2598 13.0557 10.8102 14.4956C9.40951 15.8853 7.31499 16.1767 5.42907 16.0721C5.41277 16.0647 5.38071 16.0507 5.36441 16.0434L5.37116 16.0743C4.03122 15.9596 2.68117 15.5676 1.5982 14.7453C0.658054 14.0563 -0.0341237 12.95 0.00130051 11.7571C-0.00432238 10.4252 0.911646 9.27057 2.0008 8.59565C4.83586 6.99047 8.54134 7.29474 11.233 9.05066C11.2319 6.03546 11.2403 3.0197 11.2066 0.00449946ZM5.54659 8.98766C4.2477 9.09453 2.88134 9.50398 1.97381 10.4871C1.3671 11.1092 1.22934 12.1249 1.7517 12.8437C3.35873 11.7346 5.39758 11.441 7.30599 11.653C8.38896 11.7627 9.46349 12.1041 10.3468 12.7531C10.7168 12.1592 10.9238 11.4775 11.0503 10.7942C9.61137 9.39149 7.5101 8.86955 5.54659 8.98766ZM2.88809 13.86C3.87716 14.4174 5.02816 14.6553 6.1578 14.6238C7.25538 14.6182 8.41145 14.4596 9.3381 13.8274C8.61893 13.3414 7.74682 13.1513 6.89327 13.0827C5.52747 12.9669 4.0807 13.1452 2.88809 13.86Z" fill="white"/>
<path d="M12.979 10.9039C14.4561 13.2509 13.7763 16.6654 11.562 18.3145C9.49732 19.9208 6.69881 20.477 4.15614 19.9331C2.99839 19.6772 1.88169 19.1457 1.03994 18.2987C-0.0486488 17.2813 -0.316298 15.5124 0.463034 14.2329C0.778478 14.6283 1.13666 14.9894 1.54825 15.2858C1.04107 16.6885 2.41642 17.891 3.6304 18.274C5.13284 18.7959 6.78766 18.7998 8.31146 18.3617C9.31346 18.1469 10.2317 17.612 10.9835 16.9236C10.9165 16.373 10.7411 15.8431 10.5595 15.3218C10.9402 15.0214 11.2663 14.6603 11.5649 14.2785C11.7515 14.6885 11.8713 15.1232 11.9838 15.5586C12.3633 14.7925 12.4471 13.9028 12.3133 13.0659C12.6147 12.3746 12.8598 11.6525 12.979 10.9039Z" fill="white"/>
<path d="M11.4218 19.0558C11.789 18.6615 12.2349 18.3482 12.601 17.9517C12.6212 18.6086 12.6802 19.2689 12.6015 19.9241C12.5166 20.3612 11.9926 20.6711 11.5872 20.4354C11.089 20.1711 11.0648 19.4483 11.4218 19.0558Z" fill="white"/>
</svg>
