<svg width="559" height="264" viewBox="0 0 559 264" fill="none" xmlns="http://www.w3.org/2000/svg">
<path d="M563.279 107.929C570.12 118.989 576.769 130.199 583.492 141.328C514.715 182.804 446.428 225.009 377.52 266.298C331.597 292.341 277.121 313.021 223.814 299.476C172.339 286.367 136.546 242.016 112.774 197C112.716 196.522 112.595 195.587 112.537 195.109L111.918 195.693C95.9589 163.15 86.2499 126.532 90.1648 90.1257C92.9906 58.8645 108.877 27.5517 136.861 11.8479C167.476 -6.72828 206.804 -1.56067 237.479 14.2524C313.833 57.514 358.265 147.33 355.168 233.831C424.641 192.044 494.259 150.47 563.279 107.929ZM277.672 101.594C257.177 73.0685 228.771 47.1747 193.514 39.8261C170.755 34.4258 145.433 45.3118 136.12 67.3345C183.992 89.0973 219.064 132.131 240.673 179.155C253.181 205.692 260.231 235.243 257.537 264.64C276.361 264.961 294.944 260.3 312.449 253.758C324.799 201.09 307.655 145.318 277.672 101.594ZM128.475 107.663C129.361 138.231 139.858 168.116 156.268 193.776C171.635 219.054 191.341 243.564 218.775 256.215C219.99 232.871 212.263 210.091 201.994 189.422C185.702 156.266 161.507 125.313 128.475 107.663Z" fill="white"/>
<path d="M330.4 297.406C297.817 362.053 212.31 392.701 145.61 365.23C81.8802 340.537 31.7457 285.287 9.65628 220.987C-0.216844 191.598 -3.37473 159.426 4.22633 129.177C12.3129 91.1054 48.2594 61.3365 87.3679 61.6099C82.776 73.9935 79.5269 86.8738 78.4436 100.082C40.2469 107.564 31.8856 154.55 39.6739 186.907C48.2415 227.596 70.4444 264.74 100.767 293.007C119.068 312.578 143.397 325.971 168.917 333.571C180.328 324.671 189.811 313.62 199.023 302.543C210.866 307.039 223.333 309.496 235.894 311.057C229.241 320.751 221.133 329.278 212.914 337.648C235.155 335.861 256.179 325.782 273.089 311.536C292.605 309.003 312.055 304.793 330.4 297.406Z" fill="white"/>
<path d="M127.149 372.053C140.911 374.985 153.922 380.769 167.719 383.646C153.302 392.927 139.333 403.123 123.622 410.164C112.707 414.134 98.718 406.552 98.5264 394.298C97.7264 379.58 113.561 369.326 127.149 372.053Z" fill="white"/>
</svg>
